<?xml version="1.0" standalone="no"?>
<!DOCTYPE svg PUBLIC "-//W3C//DTD SVG 20010904//EN"
 "http://www.w3.org/TR/2001/REC-SVG-20010904/DTD/svg10.dtd">
<svg version="1.0" xmlns="http://www.w3.org/2000/svg"
 width="48.000000pt" height="48.000000pt" viewBox="0 0 48.000000 48.000000"
 preserveAspectRatio="xMidYMid meet">

<g transform="translate(0.000000,48.000000) scale(0.100000,-0.100000)"
fill="#000000" stroke="none">
<path d="M103 359 c-19 -5 -33 -16 -33 -25 0 -8 -4 -12 -10 -9 -6 4 -10 -35
-10 -109 l0 -116 26 11 c41 15 109 15 139 -1 23 -12 29 -12 56 4 24 14 41 16
77 11 26 -4 55 -11 65 -16 16 -9 17 -1 17 106 0 75 -4 114 -10 110 -5 -3 -10
1 -10 9 0 20 -42 31 -100 27 -81 -5 -95 -4 -135 2 -22 3 -55 2 -72 -4z m280
-16 c14 -4 17 -17 17 -93 l0 -88 -62 -1 c-35 -1 -79 -1 -98 -1 -19 0 -63 0
-97 1 l-63 1 0 88 c0 62 4 90 13 93 16 6 268 7 290 0z"/>
<path d="M230 240 c0 -33 4 -60 10 -60 6 0 10 27 10 60 0 33 -4 60 -10 60 -6
0 -10 -27 -10 -60z"/>
</g>
</svg>
